# Blender 4.5.0
# www.blender.org
mtllib chair.mtl
o Cube
v 0.205000 0.400000 -0.175000
v 0.205000 0.450000 0.175000
v -0.205000 0.400000 -0.175000
v -0.205000 0.450000 0.175000
v 0.205000 0.450000 -0.225000
v -0.205000 0.450000 -0.225000
v -0.205000 0.900000 -0.275000
v 0.205000 0.900000 -0.275000
v -0.205000 0.400000 0.225000
v 0.205000 0.400000 0.225000
v 0.225000 0.400000 -0.175000
v 0.225000 0.450000 0.175000
v 0.225000 0.450000 -0.225000
v 0.225000 0.900000 -0.275000
v 0.225000 0.400000 0.225000
v -0.225000 0.400000 -0.175000
v -0.225000 0.450000 0.175000
v -0.225000 0.450000 -0.225000
v -0.225000 0.900000 -0.275000
v -0.225000 0.400000 0.225000
v 0.205000 0.400000 0.135000
v 0.205000 0.360000 0.175000
v 0.205000 0.398997 0.143901
v 0.205000 0.396039 0.152355
v 0.205000 0.391273 0.159940
v 0.205000 0.384940 0.166273
v 0.205000 0.377355 0.171039
v 0.205000 0.368901 0.173997
v -0.205000 0.400000 0.135000
v -0.205000 0.360000 0.175000
v -0.205000 0.398997 0.143901
v -0.205000 0.396039 0.152355
v -0.205000 0.391273 0.159940
v -0.205000 0.384940 0.166273
v -0.205000 0.377355 0.171039
v -0.205000 0.368901 0.173997
v -0.205000 0.450000 0.185000
v -0.205000 0.410000 0.225000
v -0.205000 0.448997 0.193901
v -0.205000 0.446039 0.202355
v -0.205000 0.441273 0.209940
v -0.205000 0.434940 0.216273
v -0.205000 0.427355 0.221039
v -0.205000 0.418901 0.223997
v 0.205000 0.450000 0.185000
v 0.205000 0.410000 0.225000
v 0.205000 0.448997 0.193901
v 0.205000 0.446039 0.202355
v 0.205000 0.441273 0.209940
v 0.205000 0.434940 0.216273
v 0.205000 0.427355 0.221039
v 0.205000 0.418901 0.223997
v 0.225000 0.360000 0.175000
v 0.225000 0.400000 0.135000
v 0.225000 0.440000 0.175000
v 0.225000 0.400000 0.215000
v 0.225000 0.368901 0.173997
v 0.225000 0.377355 0.171039
v 0.225000 0.384940 0.166273
v 0.225000 0.391273 0.159940
v 0.225000 0.396039 0.152355
v 0.225000 0.398997 0.143901
v 0.225000 0.450000 0.185000
v 0.225000 0.410000 0.225000
v 0.225000 0.448997 0.193901
v 0.225000 0.446039 0.202355
v 0.225000 0.441273 0.209940
v 0.225000 0.434940 0.216273
v 0.225000 0.427355 0.221039
v 0.225000 0.418901 0.223997
v -0.225000 0.400000 0.135000
v -0.225000 0.360000 0.175000
v -0.225000 0.400000 0.215000
v -0.225000 0.440000 0.175000
v -0.225000 0.398997 0.143901
v -0.225000 0.396039 0.152355
v -0.225000 0.391273 0.159940
v -0.225000 0.384940 0.166273
v -0.225000 0.377355 0.171039
v -0.225000 0.368901 0.173997
v -0.225000 0.410000 0.225000
v -0.225000 0.450000 0.185000
v -0.225000 0.418901 0.223997
v -0.225000 0.427355 0.221039
v -0.225000 0.434940 0.216273
v -0.225000 0.441273 0.209940
v -0.225000 0.446039 0.202355
v -0.225000 0.448997 0.193901
v 0.205000 0.490000 -0.175000
v 0.205000 0.450000 -0.135000
v 0.205000 0.470000 -0.169641
v 0.205000 0.455359 -0.155000
v -0.205000 0.490000 -0.175000
v -0.205000 0.450000 -0.135000
v -0.205000 0.470000 -0.169641
v -0.205000 0.455359 -0.155000
v 0.205000 0.440000 -0.225000
v 0.205000 0.400000 -0.185000
v 0.205000 0.360000 -0.225000
v 0.205425 0.400000 -0.225000
v 0.205000 0.420000 -0.219641
v 0.205000 0.405359 -0.205000
v -0.205000 0.400000 -0.185000
v -0.205000 0.440000 -0.225000
v -0.205425 0.400000 -0.225000
v -0.205000 0.360000 -0.225000
v -0.205000 0.405359 -0.205000
v -0.205000 0.420000 -0.219641
v 0.225000 0.490000 -0.175000
v 0.225000 0.450000 -0.135000
v 0.225000 0.410000 -0.175000
v 0.225000 0.450000 -0.215000
v 0.225000 0.470000 -0.169641
v 0.225000 0.455359 -0.155000
v 0.225000 0.400000 -0.185000
v 0.225000 0.440000 -0.225000
v 0.225000 0.405359 -0.205000
v 0.225000 0.420000 -0.219641
v -0.225000 0.450000 -0.135000
v -0.225000 0.490000 -0.175000
v -0.225000 0.450000 -0.215000
v -0.225000 0.410000 -0.175000
v -0.225000 0.455359 -0.155000
v -0.225000 0.470000 -0.169641
v -0.225000 0.440000 -0.225000
v -0.225000 0.400000 -0.185000
v -0.225000 0.420000 -0.219641
v -0.225000 0.405359 -0.205000
v -0.205000 0.900000 -0.265000
v -0.205000 0.890185 -0.253085
v 0.205000 0.890185 -0.253085
v 0.205000 0.900000 -0.265000
v 0.225000 0.900000 -0.265000
v 0.225000 0.890185 -0.253085
v -0.225000 0.890185 -0.253085
v -0.225000 0.900000 -0.265000
v 0.205000 0.009923 -0.223760
v 0.205000 0.000000 -0.235000
v -0.205000 0.000000 -0.235000
v -0.205000 0.009923 -0.223760
v 0.205000 0.000000 -0.265000
v 0.205000 0.009905 -0.273624
v -0.205000 0.009905 -0.273624
v -0.205000 0.000000 -0.265000
v -0.205000 0.000000 0.235000
v -0.205000 0.009905 0.223624
v 0.205000 0.009905 0.223624
v 0.205000 0.000000 0.235000
v -0.205000 0.009923 0.273760
v -0.205000 0.000000 0.265000
v 0.205000 0.000000 0.265000
v 0.205000 0.009923 0.273760
v 0.225000 0.000000 0.235000
v 0.225000 0.009905 0.223624
v 0.225000 0.009923 0.273760
v 0.225000 0.000000 0.265000
v -0.225000 0.009905 0.223624
v -0.225000 0.000000 0.235000
v -0.225000 0.000000 0.265000
v -0.225000 0.009923 0.273760
vn -0.0000 -0.1104 -0.9939
vn 1.0000 -0.0000 -0.0000
vn -1.0000 -0.0000 -0.0000
vn -0.0000 0.1120 0.9937
vn -0.0000 0.3303 0.9439
vn -0.0000 0.5320 0.8467
vn -0.0000 0.7071 0.7071
vn -0.0000 0.8467 0.5320
vn -0.0000 0.9439 0.3303
vn -0.0000 0.9937 0.1120
vn -0.0000 -0.1120 -0.9937
vn -0.0000 -0.3303 -0.9439
vn -0.0000 -0.5320 -0.8467
vn -0.0000 -0.7071 -0.7071
vn -0.0000 -0.8467 -0.5320
vn -0.0000 -0.9439 -0.3303
vn -0.0000 -0.9937 -0.1120
vn -0.0000 -1.0000 -0.0000
vn -0.0000 -0.0000 1.0000
vn -0.0000 1.0000 -0.0000
vn 0.9999 -0.0000 0.0142
vn -0.9999 -0.0000 0.0142
vn -0.0000 0.9659 0.2588
vn -0.0000 0.2588 0.9659
vn -0.0000 -0.9659 -0.2588
vn -0.0000 -0.2588 -0.9659
vn -0.0000 -0.0000 -1.0000
vn -0.0000 0.7719 0.6358
vn -0.0000 0.1915 0.9815
vn -0.0000 -0.7497 0.6618
vn -0.0000 -0.6567 -0.7542
vn -0.0000 -0.7542 -0.6567
vn -0.0000 -0.6618 0.7497
vn -0.0000 -0.1240 0.9923
vn -0.0000 0.1237 -0.9923
vn -0.0000 -0.1376 -0.9905
vn -0.0000 0.1240 0.9923
vt 0.625000 0.500000
vt 0.625000 0.250000
vt 0.375000 0.750000
vt 0.375000 0.750000
vt 0.375000 0.748762
vt 0.375000 0.748138
vt 0.375000 0.747443
vt 0.375000 0.724474
vt 0.575000 0.750000
vt 0.375000 0.024527
vt 0.375000 0.000000
vt 0.375000 0.000000
vt 0.548520 0.000000
vt 0.425000 0.750000
vt 0.425000 0.750000
vt 0.469504 0.750000
vt 0.469504 0.750000
vt 0.511777 0.750000
vt 0.511777 0.750000
vt 0.549698 0.750000
vt 0.549698 0.750000
vt 0.590539 0.750000
vt 0.625000 0.750000
vt 0.609357 0.750000
vt 0.625000 0.750000
vt 0.621040 0.750000
vt 0.625000 0.750000
vt 0.625000 0.750000
vt 0.125000 0.750000
vt 0.125000 0.750000
vt 0.125000 0.750000
vt 0.125000 0.750000
vt 0.125000 0.750000
vt 0.125000 0.739243
vt 0.125000 0.739243
vt 0.125000 0.733825
vt 0.125000 0.727786
vt 0.125000 0.727786
vt 0.125000 0.721429
vt 0.125000 0.721429
vt 0.375000 0.721429
vt 0.375000 0.727786
vt 0.375000 0.733825
vt 0.375000 0.739243
vt 0.875000 0.750000
vt 0.875000 0.750000
vt 0.625000 1.000000
vt 0.549698 1.000000
vt 0.511777 1.000000
vt 0.469504 1.000000
vt 0.425000 1.000000
vt 0.511777 1.000000
vt 0.549698 1.000000
vt 0.625000 1.000000
vt 0.875000 0.750000
vt 0.875000 0.750000
vt 0.875000 0.750000
vt 0.125000 0.500000
vt 0.375000 0.500000
vt 0.375000 1.000000
vt 0.625000 0.000000
vt 0.425000 0.000000
vt 0.469504 0.000000
vt 0.511777 0.000000
vt 0.549698 0.000000
vt 0.581366 0.000000
vt 0.605194 0.000000
vt 0.619986 0.000000
vt 0.575000 0.500000
vt 0.475000 0.500000
vt 0.393948 0.500000
vt 0.375000 0.475610
vt 0.375000 0.250000
vt 0.375000 0.250000
vt 0.404284 0.250000
vt 0.556408 0.250000
vt 0.375000 0.274390
vt 0.375000 0.250000
vt 0.625000 0.500000
vt 0.625000 0.503261
vt 0.625000 0.525411
vt 0.425000 0.500000
vt 0.625000 0.500000
vt 0.625000 0.221429
vt 0.625000 0.235714
vt 0.625000 0.246172
vt 0.625000 0.250000
vt 0.425000 0.250000
vt 0.625000 0.528571
vt 0.625000 0.514286
vt 0.625000 0.500000
vt 0.875000 0.528571
vt 0.875000 0.514286
vt 0.875000 0.500000
vt 0.875000 0.500000
vt 0.875000 0.528571
vt 0.875000 0.514286
vt 0.875000 0.500000
vt 0.391367 0.500000
vt 0.475000 0.500000
vt 0.575000 0.500000
vt 0.391367 0.250000
vt 0.475000 0.250000
vt 0.575000 0.250000
vt 0.375000 0.500000
vt 0.375000 0.500000
vt 0.375000 0.500000
vt 0.375000 0.750000
vt 0.375000 0.750000
vt 0.375000 0.250000
vt 0.375000 1.000000
s 0
usemtl Material
f 5/1/1 6/2/1 7/2/1 8/1/1
f 7/2/1 6/2/1 18/2/1 19/2/1
f 5/1/1 8/1/1 14/1/1 13/1/1
f 53/3/2 57/3/2 58/3/2 59/4/2 60/5/2 61/6/2 62/7/2 54/8/2 55/9/2 56/4/2
f 71/10/3 75/11/3 76/11/3 77/11/3 78/11/3 79/12/3 80/11/3 72/11/3 73/11/3 74/13/3
f 46/14/4 64/15/4 70/16/4 52/17/4
f 52/17/5 70/16/5 69/18/5 51/19/5
f 51/19/6 69/18/6 68/20/6 50/21/6
f 50/21/7 68/20/7 67/22/7 49/23/7
f 49/23/8 67/22/8 66/24/8 48/25/8
f 48/25/9 66/24/9 65/26/9 47/27/9
f 47/27/10 65/26/10 63/27/10 45/28/10
f 30/29/11 72/29/11 80/30/11 36/31/11
f 36/31/12 80/30/12 79/29/12 35/32/12
f 35/32/13 79/29/13 78/31/13 34/33/13
f 34/33/14 78/31/14 77/34/14 33/35/14
f 33/35/15 77/34/15 76/36/15 32/36/15
f 32/36/16 76/36/16 75/37/16 31/38/16
f 31/38/17 75/37/17 71/39/17 29/40/17
f 29/40/17 21/41/17 23/42/17 31/38/17
f 31/38/16 23/42/16 24/43/16 32/36/16
f 32/36/15 24/43/15 25/44/15 33/35/15
f 33/35/14 25/44/14 26/3/14 34/33/14
f 34/33/13 26/3/13 27/4/13 35/32/13
f 35/32/12 27/4/12 28/4/12 36/31/12
f 36/31/11 28/4/11 22/3/11 30/29/11
f 45/28/10 37/45/10 39/46/10 47/27/10
f 47/27/9 39/46/9 40/46/9 48/25/9
f 48/25/8 40/46/8 41/46/8 49/23/8
f 49/23/7 41/47/7 42/48/7 50/21/7
f 50/21/6 42/48/6 43/49/6 51/19/6
f 51/19/5 43/49/5 44/50/5 52/17/5
f 52/17/4 44/50/4 38/51/4 46/14/4
f 21/41/17 54/8/17 62/7/17 23/42/17
f 23/42/16 62/7/16 61/6/16 24/43/16
f 24/43/15 61/6/15 60/5/15 25/44/15
f 25/44/14 60/5/14 59/4/14 26/3/14
f 26/3/13 59/4/13 58/3/13 27/4/13
f 27/4/12 58/3/12 57/3/12 28/4/12
f 28/4/11 57/3/11 53/3/11 22/3/11
f 81/51/4 38/51/4 44/50/4 83/50/4
f 83/50/5 44/50/5 43/49/5 84/52/5
f 84/52/6 43/49/6 42/48/6 85/53/6
f 85/53/7 42/48/7 41/47/7 86/54/7
f 86/46/8 41/46/8 40/46/8 87/55/8
f 87/55/9 40/46/9 39/46/9 88/56/9
f 88/56/10 39/46/10 37/45/10 82/57/10
f 3/58/18 1/59/18 21/41/18 29/40/18
f 21/41/18 1/59/18 11/59/18 54/8/18
f 3/58/18 29/40/18 71/39/18 16/58/18
f 9/60/19 38/51/19 81/51/19 20/60/19
f 10/3/19 46/14/19 38/51/19 9/60/19
f 2/27/20 4/46/20 37/45/20 45/28/20
f 37/45/20 4/46/20 17/46/20 82/57/20
f 46/14/19 10/3/19 15/3/19 64/15/19
f 2/27/20 45/28/20 63/27/20 12/27/20
f 56/4/2 55/9/2 12/27/2 63/27/2 65/26/2 66/24/2 67/22/2 68/20/2 69/18/2 70/16/2 64/15/2 15/3/2
f 17/61/3 74/13/3 73/11/3 20/11/3 81/62/3 83/63/3 84/64/3 85/65/3 86/66/3 87/67/3 88/68/3 82/61/3
f 97/69/21 101/70/21 102/71/21 98/59/21 99/59/21 100/72/21
f 103/73/22 107/74/22 108/75/22 104/76/22 105/77/22 106/78/22
f 109/79/2 113/1/2 114/80/2 110/81/2 111/82/2 112/83/2
f 119/84/3 123/85/3 124/86/3 120/2/3 121/87/3 122/88/3
f 90/89/23 110/81/23 114/80/23 92/90/23
f 92/90/7 114/80/7 113/1/7 91/91/7
f 91/91/24 113/1/24 109/79/24 89/1/24
f 94/92/23 90/89/23 92/90/23 96/93/23
f 96/93/7 92/90/7 91/91/7 95/94/7
f 95/94/24 91/91/24 89/1/24 93/95/24
f 119/96/23 94/92/23 96/93/23 123/97/23
f 123/97/7 96/93/7 95/94/7 124/95/7
f 124/95/24 95/94/24 93/95/24 120/98/24
f 115/59/25 98/59/25 102/71/25 117/99/25
f 117/99/14 102/71/14 101/70/14 118/100/14
f 118/100/26 101/70/26 97/69/26 116/101/26
f 103/73/25 126/78/25 128/102/25 107/74/25
f 107/74/14 128/102/14 127/103/14 108/75/14
f 108/75/26 127/103/26 125/104/26 104/76/26
f 90/89/20 2/27/20 12/27/20 110/81/20
f 90/89/20 94/92/20 4/46/20 2/27/20
f 4/46/20 94/92/20 119/96/20 17/46/20
f 1/59/18 98/59/18 115/59/18 11/59/18
f 105/77/27 104/76/27 6/2/27 5/1/27 97/69/27 100/72/27
f 97/69/27 5/1/27 13/1/27 116/101/27
f 103/73/18 3/78/18 16/78/18 126/78/18
f 6/2/27 104/76/27 125/104/27 18/2/27
f 112/83/2 111/82/2 11/59/2 115/59/2 117/99/2 118/100/2 116/101/2 13/1/2
f 11/59/2 111/82/2 110/81/2 12/27/2 55/9/2 54/8/2
f 16/78/3 122/88/3 121/87/3 18/2/3 125/104/3 127/103/3 128/102/3 126/78/3
f 71/10/3 74/13/3 17/61/3 119/84/3 122/88/3 16/78/3
f 130/94/28 131/79/28 132/91/28 129/94/28
f 129/94/28 136/95/28 135/98/28 130/94/28
f 131/79/28 134/83/28 133/1/28 132/91/28
f 93/95/29 89/1/29 131/79/29 130/94/29
f 129/94/20 132/91/20 8/1/20 7/94/20
f 129/94/20 7/94/20 19/94/20 136/95/20
f 93/95/29 130/94/29 135/98/29 120/98/29
f 8/1/20 132/91/20 133/1/20 14/1/20
f 131/79/29 89/1/29 109/79/29 134/83/29
f 109/79/2 112/83/2 13/1/2 14/1/2 133/1/2 134/83/2
f 18/2/3 121/87/3 120/2/3 135/2/3 136/2/3 19/2/3
f 137/105/30 140/58/30 139/58/30 138/59/30
f 141/106/31 144/58/31 143/58/31 142/107/31
f 146/32/32 147/3/32 148/4/32 145/29/32
f 150/32/33 151/4/33 152/108/33 149/32/33
f 147/3/32 154/3/32 153/4/32 148/4/32
f 155/3/33 152/108/33 151/4/33 156/109/33
f 145/29/32 158/31/32 157/33/32 146/32/32
f 149/32/33 160/32/33 159/31/33 150/32/33
f 1/59/34 3/58/34 140/58/34 137/105/34
f 138/59/18 139/58/18 144/58/18 141/106/18
f 99/59/2 98/59/2 1/59/2 137/105/2 138/59/2 141/106/2 142/107/2
f 3/78/3 103/73/3 106/78/3 143/110/3 144/78/3 139/78/3 140/73/3
f 106/78/35 105/77/35 100/72/35 99/59/35 142/107/35 143/110/35
f 30/29/36 22/3/36 147/3/36 146/32/36
f 145/29/18 148/4/18 151/4/18 150/32/18
f 145/29/18 150/32/18 159/31/18 158/31/18
f 30/29/36 146/32/36 157/33/36 72/29/36
f 151/4/18 148/4/18 153/4/18 156/109/18
f 147/3/36 22/3/36 53/3/36 154/3/36
f 10/3/37 9/60/37 149/111/37 152/108/37
f 149/111/37 9/60/37 20/60/37 160/60/37
f 10/3/37 152/108/37 155/3/37 15/3/37
f 53/3/2 56/4/2 15/3/2 155/3/2 156/109/2 153/4/2 154/3/2
f 20/11/3 73/11/3 72/11/3 157/11/3 158/11/3 159/11/3 160/11/3
